<?xml version="1.0" encoding="UTF-8" standalone="no"?>
<!-- Created with Inkscape (http://www.inkscape.org/) -->

<svg
   xmlns:dc="http://purl.org/dc/elements/1.1/"
   xmlns:cc="http://creativecommons.org/ns#"
   xmlns:rdf="http://www.w3.org/1999/02/22-rdf-syntax-ns#"
   xmlns:svg="http://www.w3.org/2000/svg"
   xmlns="http://www.w3.org/2000/svg"
   xmlns:sodipodi="http://sodipodi.sourceforge.net/DTD/sodipodi-0.dtd"
   xmlns:inkscape="http://www.inkscape.org/namespaces/inkscape"
   width="200"
   height="200"
   id="svg3803"
   version="1.1"
   inkscape:version="0.48.4 r9939"
   sodipodi:docname="ballons.svg">
  <defs
     id="defs3805" />
  <sodipodi:namedview
     id="base"
     pagecolor="#ffffff"
     bordercolor="#666666"
     borderopacity="1.0"
     inkscape:pageopacity="0.0"
     inkscape:pageshadow="2"
     inkscape:zoom="1.979899"
     inkscape:cx="193.17254"
     inkscape:cy="75.53288"
     inkscape:document-units="px"
     inkscape:current-layer="layer1"
     showgrid="false"
     inkscape:window-width="1280"
     inkscape:window-height="726"
     inkscape:window-x="0"
     inkscape:window-y="25"
     inkscape:window-maximized="1" />
  <metadata
     id="metadata3808">
    <rdf:RDF>
      <cc:Work
         rdf:about="">
        <dc:format>image/svg+xml</dc:format>
        <dc:type
           rdf:resource="http://purl.org/dc/dcmitype/StillImage" />
        <dc:title></dc:title>
      </cc:Work>
    </rdf:RDF>
  </metadata>
  <g
     inkscape:label="Layer 1"
     inkscape:groupmode="layer"
     id="layer1"
     transform="translate(0,-852.36218)">
    <g
       style="display:inline"
       id="g3907"
       transform="matrix(0.98013068,0,0,0.98013068,-985.60563,568.20585)">
      <path
         sodipodi:nodetypes="sssss"
         inkscape:connector-curvature="0"
         id="path3122"
         d="m 1014.5089,351.17382 c -6.295,-35.22688 28.5011,-67.44558 65.0538,-46.49227 19.4005,11.12104 26.2448,37.03086 24.2184,57.80598 -4.9909,51.16755 -39.8776,46.44857 -67.5287,24.2184 -11.1333,-8.95061 -19.1393,-20.95904 -21.7435,-35.53211 z"
         style="fill:#ffb515;fill-opacity:1;stroke:none" />
      <rect
         transform="matrix(0.8660254,-0.5,0.5,0.8660254,0,0)"
         ry="0.5"
         y="839.17896"
         x="745.93903"
         height="15"
         width="27"
         id="rect3903"
         style="fill:#000000;fill-opacity:1;stroke:none" />
      <text
         transform="matrix(0.8660254,-0.5,0.5,0.8660254,0,0)"
         sodipodi:linespacing="100%"
         id="text3894"
         y="822.70764"
         x="771.89819"
         style="font-size:72px;font-style:normal;font-variant:normal;font-weight:500;font-stretch:normal;line-height:100%;letter-spacing:0px;word-spacing:0px;fill:#000000;fill-opacity:1;stroke:none;font-family:CMU Bright;-inkscape-font-specification:CMU Bright Medium"
         xml:space="preserve"><tspan
           style="font-size:14px;font-style:normal;font-variant:normal;font-weight:bold;font-stretch:normal;text-align:end;letter-spacing:0px;text-anchor:end;font-family:Georgia;-inkscape-font-specification:Georgia Bold"
           y="822.70764"
           x="771.89819"
           id="tspan3896"
           sodipodi:role="line">software</tspan><tspan
           style="font-size:14px;font-style:normal;font-variant:normal;font-weight:bold;font-stretch:normal;text-align:end;line-height:100%;letter-spacing:0px;text-anchor:end;font-family:Georgia;-inkscape-font-specification:Georgia Bold"
           id="tspan3898"
           y="836.70764"
           x="771.89819"
           sodipodi:role="line">freedom</tspan><tspan
           style="font-size:14px;font-style:normal;font-variant:normal;font-weight:bold;font-stretch:normal;text-align:end;letter-spacing:0px;text-anchor:end;fill:#ffb515;fill-opacity:1;font-family:Georgia;-inkscape-font-specification:Georgia Bold"
           id="tspan3900"
           y="850.70764"
           x="771.89819"
           sodipodi:role="line">day</tspan></text>
      <path
         style="fill:#ffb515;fill-opacity:1;stroke:none;display:inline"
         d="m 1082.2737,400.95119 1.4958,1.76026 0.078,6.20313 c 3.0313,-0.21875 5.125,-1.46875 6.75,-3.375 l -4.625,-3.625 -0.3087,-2.54419 z"
         id="path3917"
         inkscape:connector-curvature="0"
         sodipodi:nodetypes="ccccccc" />
    </g>
    <g
       transform="matrix(0.39649254,0.85415844,-0.85415844,0.39649254,25.357478,-80.27139)"
       id="g3937"
       style="fill:#9ece40;fill-opacity:1;display:inline">
      <path
         style="fill:#9ece40;fill-opacity:1;stroke:none"
         d="m 1014.5089,351.17382 c -6.295,-35.22688 28.5011,-67.44558 65.0538,-46.49227 19.4005,11.12104 26.2448,37.03086 24.2184,57.80598 -4.9909,51.16755 -39.8776,46.44857 -67.5287,24.2184 -11.1333,-8.95061 -19.1393,-20.95904 -21.7435,-35.53211 z"
         id="path3939"
         inkscape:connector-curvature="0"
         sodipodi:nodetypes="sssss" />
      <path
         sodipodi:nodetypes="ccccccc"
         inkscape:connector-curvature="0"
         id="path3951"
         d="m 1082.2737,400.95119 1.4958,1.76026 0.078,6.20313 c 3.0313,-0.21875 5.125,-1.46875 6.75,-3.375 l -4.625,-3.625 -0.3087,-2.54419 z"
         style="fill:#9ece40;fill-opacity:1;stroke:none;display:inline" />
    </g>
    <g
       transform="matrix(0.20659577,-0.04398071,0.04398071,0.20659577,-122.61357,880.73053)"
       id="g3977"
       style="fill:#ffb515;fill-opacity:1;display:inline">
      <path
         style="fill:#ffb515;fill-opacity:1;stroke:none"
         d="m 1014.5089,351.17382 c -6.295,-35.22688 28.5011,-67.44558 65.0538,-46.49227 19.4005,11.12104 26.2448,37.03086 24.2184,57.80598 -4.9909,51.16755 -39.8776,46.44857 -67.5287,24.2184 -11.1333,-8.95061 -19.1393,-20.95904 -21.7435,-35.53211 z"
         id="path3979"
         inkscape:connector-curvature="0"
         sodipodi:nodetypes="sssss" />
      <path
         sodipodi:nodetypes="ccccccc"
         inkscape:connector-curvature="0"
         id="path3981"
         d="m 1082.2737,400.95119 1.4958,1.76026 0.078,6.20313 c 3.0313,-0.21875 5.125,-1.46875 6.75,-3.375 l -4.625,-3.625 -0.3087,-2.54419 z"
         style="fill:#ffb515;fill-opacity:1;stroke:none;display:inline" />
      <path
         sodipodi:nodetypes="sssss"
         inkscape:connector-curvature="0"
         id="path3983"
         d="m 1014.5089,351.17382 c -6.295,-35.22688 28.5011,-67.44558 65.0538,-46.49227 19.4005,11.12104 26.2448,37.03086 24.2184,57.80598 -4.9909,51.16755 -39.8776,46.44857 -67.5287,24.2184 -11.1333,-8.95061 -19.1393,-20.95904 -21.7435,-35.53211 z"
         style="fill:#ffb515;fill-opacity:1;stroke:none" />
    </g>
    <g
       style="fill:#ffb515;fill-opacity:1;display:inline"
       id="g4001"
       transform="matrix(0.20659577,-0.04398071,0.04398071,0.20659577,-193.30537,960.43215)">
      <path
         sodipodi:nodetypes="sssss"
         inkscape:connector-curvature="0"
         id="path4003"
         d="m 1014.5089,351.17382 c -6.295,-35.22688 28.5011,-67.44558 65.0538,-46.49227 19.4005,11.12104 26.2448,37.03086 24.2184,57.80598 -4.9909,51.16755 -39.8776,46.44857 -67.5287,24.2184 -11.1333,-8.95061 -19.1393,-20.95904 -21.7435,-35.53211 z"
         style="fill:#ffb515;fill-opacity:1;stroke:none" />
      <path
         style="fill:#ffb515;fill-opacity:1;stroke:none;display:inline"
         d="m 1082.2737,400.95119 1.4958,1.76026 0.078,6.20313 c 3.0313,-0.21875 5.125,-1.46875 6.75,-3.375 l -4.625,-3.625 -0.3087,-2.54419 z"
         id="path4005"
         inkscape:connector-curvature="0"
         sodipodi:nodetypes="ccccccc" />
      <path
         style="fill:#ffb515;fill-opacity:1;stroke:none"
         d="m 1014.5089,351.17382 c -6.295,-35.22688 28.5011,-67.44558 65.0538,-46.49227 19.4005,11.12104 26.2448,37.03086 24.2184,57.80598 -4.9909,51.16755 -39.8776,46.44857 -67.5287,24.2184 -11.1333,-8.95061 -19.1393,-20.95904 -21.7435,-35.53211 z"
         id="path4007"
         inkscape:connector-curvature="0"
         sodipodi:nodetypes="sssss" />
    </g>
    <g
       transform="matrix(0.13397479,0.16329994,-0.16329994,0.13397479,-9.0604341,811.43706)"
       id="g4009"
       style="fill:#ffb515;fill-opacity:1;display:inline">
      <path
         style="fill:#ffb515;fill-opacity:1;stroke:none"
         d="m 1014.5089,351.17382 c -6.295,-35.22688 28.5011,-67.44558 65.0538,-46.49227 19.4005,11.12104 26.2448,37.03086 24.2184,57.80598 -4.9909,51.16755 -39.8776,46.44857 -67.5287,24.2184 -11.1333,-8.95061 -19.1393,-20.95904 -21.7435,-35.53211 z"
         id="path4011"
         inkscape:connector-curvature="0"
         sodipodi:nodetypes="sssss" />
      <path
         sodipodi:nodetypes="ccccccc"
         inkscape:connector-curvature="0"
         id="path4013"
         d="m 1082.2737,400.95119 1.4958,1.76026 0.078,6.20313 c 3.0313,-0.21875 5.125,-1.46875 6.75,-3.375 l -4.625,-3.625 -0.3087,-2.54419 z"
         style="fill:#ffb515;fill-opacity:1;stroke:none;display:inline" />
      <path
         sodipodi:nodetypes="sssss"
         inkscape:connector-curvature="0"
         id="path4015"
         d="m 1014.5089,351.17382 c -6.295,-35.22688 28.5011,-67.44558 65.0538,-46.49227 19.4005,11.12104 26.2448,37.03086 24.2184,57.80598 -4.9909,51.16755 -39.8776,46.44857 -67.5287,24.2184 -11.1333,-8.95061 -19.1393,-20.95904 -21.7435,-35.53211 z"
         style="fill:#ffb515;fill-opacity:1;stroke:none" />
    </g>
    <g
       style="fill:#ffb515;fill-opacity:1;display:inline"
       id="g4017"
       transform="matrix(0.40958215,-0.08719305,0.08719305,0.40958215,-293.79012,829.32884)">
      <path
         sodipodi:nodetypes="sssss"
         inkscape:connector-curvature="0"
         id="path4019"
         d="m 1014.5089,351.17382 c -6.295,-35.22688 28.5011,-67.44558 65.0538,-46.49227 19.4005,11.12104 26.2448,37.03086 24.2184,57.80598 -4.9909,51.16755 -39.8776,46.44857 -67.5287,24.2184 -11.1333,-8.95061 -19.1393,-20.95904 -21.7435,-35.53211 z"
         style="fill:#ffb515;fill-opacity:1;stroke:none" />
      <path
         style="fill:#ffb515;fill-opacity:1;stroke:none;display:inline"
         d="m 1082.2737,400.95119 1.4958,1.76026 0.078,6.20313 c 3.0313,-0.21875 5.125,-1.46875 6.75,-3.375 l -4.625,-3.625 -0.3087,-2.54419 z"
         id="path4021"
         inkscape:connector-curvature="0"
         sodipodi:nodetypes="ccccccc" />
      <path
         style="fill:#ffb515;fill-opacity:1;stroke:none"
         d="m 1014.5089,351.17382 c -6.295,-35.22688 28.5011,-67.44558 65.0538,-46.49227 19.4005,11.12104 26.2448,37.03086 24.2184,57.80598 -4.9909,51.16755 -39.8776,46.44857 -67.5287,24.2184 -11.1333,-8.95061 -19.1393,-20.95904 -21.7435,-35.53211 z"
         id="path4023"
         inkscape:connector-curvature="0"
         sodipodi:nodetypes="sssss" />
    </g>
    <g
       transform="matrix(0.20659577,-0.04398071,0.04398071,0.20659577,-131.63128,1000.5496)"
       id="g4025"
       style="fill:#ffb515;fill-opacity:1;display:inline">
      <path
         style="fill:#ffb515;fill-opacity:1;stroke:none"
         d="m 1014.5089,351.17382 c -6.295,-35.22688 28.5011,-67.44558 65.0538,-46.49227 19.4005,11.12104 26.2448,37.03086 24.2184,57.80598 -4.9909,51.16755 -39.8776,46.44857 -67.5287,24.2184 -11.1333,-8.95061 -19.1393,-20.95904 -21.7435,-35.53211 z"
         id="path4027"
         inkscape:connector-curvature="0"
         sodipodi:nodetypes="sssss" />
      <path
         sodipodi:nodetypes="ccccccc"
         inkscape:connector-curvature="0"
         id="path4029"
         d="m 1082.2737,400.95119 1.4958,1.76026 0.078,6.20313 c 3.0313,-0.21875 5.125,-1.46875 6.75,-3.375 l -4.625,-3.625 -0.3087,-2.54419 z"
         style="fill:#ffb515;fill-opacity:1;stroke:none;display:inline" />
      <path
         sodipodi:nodetypes="sssss"
         inkscape:connector-curvature="0"
         id="path4031"
         d="m 1014.5089,351.17382 c -6.295,-35.22688 28.5011,-67.44558 65.0538,-46.49227 19.4005,11.12104 26.2448,37.03086 24.2184,57.80598 -4.9909,51.16755 -39.8776,46.44857 -67.5287,24.2184 -11.1333,-8.95061 -19.1393,-20.95904 -21.7435,-35.53211 z"
         style="fill:#ffb515;fill-opacity:1;stroke:none" />
    </g>
    <g
       style="fill:#9ece40;fill-opacity:1;display:inline"
       id="g4033"
       transform="matrix(0.09592638,0.20665289,-0.20665289,0.09592638,48.017333,737.43208)">
      <path
         sodipodi:nodetypes="sssss"
         inkscape:connector-curvature="0"
         id="path4035"
         d="m 1014.5089,351.17382 c -6.295,-35.22688 28.5011,-67.44558 65.0538,-46.49227 19.4005,11.12104 26.2448,37.03086 24.2184,57.80598 -4.9909,51.16755 -39.8776,46.44857 -67.5287,24.2184 -11.1333,-8.95061 -19.1393,-20.95904 -21.7435,-35.53211 z"
         style="fill:#9ece40;fill-opacity:1;stroke:none" />
      <path
         style="fill:#9ece40;fill-opacity:1;stroke:none;display:inline"
         d="m 1082.2737,400.95119 1.4958,1.76026 0.078,6.20313 c 3.0313,-0.21875 5.125,-1.46875 6.75,-3.375 l -4.625,-3.625 -0.3087,-2.54419 z"
         id="path4037"
         inkscape:connector-curvature="0"
         sodipodi:nodetypes="ccccccc" />
    </g>
    <g
       transform="matrix(0.09592638,0.20665289,-0.20665289,0.09592638,-8.8133427,709.01674)"
       id="g4039"
       style="fill:#9ece40;fill-opacity:1;display:inline">
      <path
         style="fill:#9ece40;fill-opacity:1;stroke:none"
         d="m 1014.5089,351.17382 c -6.295,-35.22688 28.5011,-67.44558 65.0538,-46.49227 19.4005,11.12104 26.2448,37.03086 24.2184,57.80598 -4.9909,51.16755 -39.8776,46.44857 -67.5287,24.2184 -11.1333,-8.95061 -19.1393,-20.95904 -21.7435,-35.53211 z"
         id="path4041"
         inkscape:connector-curvature="0"
         sodipodi:nodetypes="sssss" />
      <path
         sodipodi:nodetypes="ccccccc"
         inkscape:connector-curvature="0"
         id="path4043"
         d="m 1082.2737,400.95119 1.4958,1.76026 0.078,6.20313 c 3.0313,-0.21875 5.125,-1.46875 6.75,-3.375 l -4.625,-3.625 -0.3087,-2.54419 z"
         style="fill:#9ece40;fill-opacity:1;stroke:none;display:inline" />
    </g>
    <g
       style="fill:#9ece40;fill-opacity:1;display:inline"
       id="g4045"
       transform="matrix(0.09592638,0.20665289,-0.20665289,0.09592638,95.145222,625.15685)">
      <path
         sodipodi:nodetypes="sssss"
         inkscape:connector-curvature="0"
         id="path4047"
         d="m 1014.5089,351.17382 c -6.295,-35.22688 28.5011,-67.44558 65.0538,-46.49227 19.4005,11.12104 26.2448,37.03086 24.2184,57.80598 -4.9909,51.16755 -39.8776,46.44857 -67.5287,24.2184 -11.1333,-8.95061 -19.1393,-20.95904 -21.7435,-35.53211 z"
         style="fill:#9ece40;fill-opacity:1;stroke:none" />
      <path
         style="fill:#9ece40;fill-opacity:1;stroke:none;display:inline"
         d="m 1082.2737,400.95119 1.4958,1.76026 0.078,6.20313 c 3.0313,-0.21875 5.125,-1.46875 6.75,-3.375 l -4.625,-3.625 -0.3087,-2.54419 z"
         id="path4049"
         inkscape:connector-curvature="0"
         sodipodi:nodetypes="ccccccc" />
    </g>
    <g
       transform="matrix(0.49076237,-0.08322147,0.08322147,0.49076237,-518.66756,936.80722)"
       id="g4051"
       style="fill:#9ece40;fill-opacity:1;display:inline">
      <path
         style="fill:#9ece40;fill-opacity:1;stroke:none"
         d="m 1014.5089,351.17382 c -6.295,-35.22688 28.5011,-67.44558 65.0538,-46.49227 19.4005,11.12104 26.2448,37.03086 24.2184,57.80598 -4.9909,51.16755 -39.8776,46.44857 -67.5287,24.2184 -11.1333,-8.95061 -19.1393,-20.95904 -21.7435,-35.53211 z"
         id="path4053"
         inkscape:connector-curvature="0"
         sodipodi:nodetypes="sssss" />
      <path
         sodipodi:nodetypes="ccccccc"
         inkscape:connector-curvature="0"
         id="path4055"
         d="m 1082.2737,400.95119 1.4958,1.76026 0.078,6.20313 c 3.0313,-0.21875 5.125,-1.46875 6.75,-3.375 l -4.625,-3.625 -0.3087,-2.54419 z"
         style="fill:#9ece40;fill-opacity:1;stroke:none;display:inline" />
    </g>
    <path
       style="fill:none;stroke:#000000;stroke-width:1.69378781px;stroke-linecap:butt;stroke-linejoin:miter;stroke-opacity:1"
       d="m 122.62893,954.34665 43.3288,31.6055"
       id="path18358"
       inkscape:connector-curvature="0"
       sodipodi:nodetypes="cc" />
    <text
       xml:space="preserve"
       style="font-size:24.41614914px;font-style:normal;font-variant:normal;font-weight:normal;font-stretch:normal;line-height:125%;letter-spacing:0px;word-spacing:0px;fill:#000000;fill-opacity:1;stroke:none;display:inline;font-family:Ubuntu;-inkscape-font-specification:Ubuntu"
       x="654.40887"
       y="692.59167"
       id="text18354"
       sodipodi:linespacing="125%"
       transform="matrix(0.80689214,0.5906988,-0.5906988,0.80689214,0,0)"><tspan
         sodipodi:role="line"
         id="tspan18356"
         x="654.40887"
         y="692.59167"
         style="font-size:18.99033737px;font-style:normal;font-variant:normal;font-weight:bold;font-stretch:normal;font-family:Georgia;-inkscape-font-specification:Georgia Bold">!FREE!</tspan></text>
  </g>
</svg>
