<?xml version="1.0" encoding="UTF-8" standalone="no"?>
<!-- Created with Inkscape (http://www.inkscape.org/) -->

<svg
   xmlns:dc="http://purl.org/dc/elements/1.1/"
   xmlns:cc="http://creativecommons.org/ns#"
   xmlns:rdf="http://www.w3.org/1999/02/22-rdf-syntax-ns#"
   xmlns:svg="http://www.w3.org/2000/svg"
   xmlns="http://www.w3.org/2000/svg"
   xmlns:sodipodi="http://sodipodi.sourceforge.net/DTD/sodipodi-0.dtd"
   xmlns:inkscape="http://www.inkscape.org/namespaces/inkscape"
   width="185"
   height="40"
   id="svg7904"
   version="1.1"
   inkscape:version="0.48.4 r9939"
   sodipodi:docname="logo.svg">
  <defs
     id="defs7906" />
  <sodipodi:namedview
     id="base"
     pagecolor="#000000"
     bordercolor="#666666"
     borderopacity="1.0"
     inkscape:pageopacity="1"
     inkscape:pageshadow="2"
     inkscape:zoom="4.6694912"
     inkscape:cx="116.67925"
     inkscape:cy="0.64949458"
     inkscape:document-units="px"
     inkscape:current-layer="layer1"
     showgrid="false"
     inkscape:window-width="1280"
     inkscape:window-height="726"
     inkscape:window-x="0"
     inkscape:window-y="25"
     inkscape:window-maximized="1" />
  <metadata
     id="metadata7909">
    <rdf:RDF>
      <cc:Work
         rdf:about="">
        <dc:format>image/svg+xml</dc:format>
        <dc:type
           rdf:resource="http://purl.org/dc/dcmitype/StillImage" />
        <dc:title />
      </cc:Work>
    </rdf:RDF>
  </metadata>
  <g
     inkscape:label="Layer 1"
     inkscape:groupmode="layer"
     id="layer1"
     transform="translate(0,-1012.3622)">
    <g
       style="font-size:64.36774445px;font-style:normal;font-variant:normal;font-weight:500;font-stretch:normal;line-height:125%;letter-spacing:0px;word-spacing:0px;fill:#ffffff;fill-opacity:1;stroke:none;display:inline;font-family:CMU Bright;-inkscape-font-specification:CMU Bright Medium"
       id="text3957">
      <path
         d="m 54.444003,1039.8666 c 0.615991,0 1.119991,-0.047 1.512,-0.14 0.410657,-0.112 0.737323,-0.252 0.98,-0.42 0.242656,-0.1867 0.410656,-0.4013 0.504,-0.644 0.09332,-0.2427 0.139989,-0.5133 0.14,-0.812 -1.1e-5,-0.6347 -0.298677,-1.1573 -0.896,-1.568 -0.597343,-0.4293 -1.624009,-0.8867 -3.08,-1.372 -0.634673,-0.224 -1.269339,-0.476 -1.904,-0.756 -0.634671,-0.2986 -1.204004,-0.6626 -1.708,-1.092 -0.504003,-0.448 -0.914669,-0.98 -1.232,-1.596 -0.317335,-0.6346 -0.476002,-1.4 -0.476,-2.296 -2e-6,-0.896 0.167998,-1.6986 0.504,-2.408 0.335997,-0.728 0.811997,-1.344 1.428,-1.848 0.615996,-0.504 1.362662,-0.8866 2.24,-1.148 0.877326,-0.28 1.866659,-0.42 2.968,-0.42 1.306656,0 2.435989,0.14 3.388,0.42 0.951987,0.28 1.735986,0.588 2.352,0.924 l -1.26,3.444 c -0.541346,-0.28 -1.148012,-0.5226 -1.82,-0.728 -0.653344,-0.224 -1.446677,-0.336 -2.38,-0.336 -1.045342,0 -1.801341,0.1494 -2.268,0.448 -0.448007,0.28 -0.672006,0.7187 -0.672,1.316 -6e-6,0.3547 0.08399,0.6534 0.252,0.896 0.167993,0.2427 0.401326,0.4667 0.7,0.672 0.317326,0.1867 0.671992,0.364 1.064,0.532 0.410658,0.1494 0.858658,0.308 1.344,0.476 1.007989,0.3734 1.885322,0.7467 2.632,1.12 0.746654,0.3547 1.362653,0.7747 1.848,1.26 0.503985,0.4854 0.877318,1.0547 1.12,1.708 0.242651,0.6533 0.363984,1.4467 0.364,2.38 -1.6e-5,1.8107 -0.634682,3.22 -1.904,4.228 -1.269346,0.9893 -3.182677,1.484 -5.74,1.484 -0.858674,0 -1.63334,-0.056 -2.324,-0.168 -0.690672,-0.093 -1.306671,-0.2147 -1.848,-0.364 -0.52267,-0.1493 -0.980003,-0.308 -1.372,-0.476 -0.373335,-0.168 -0.690668,-0.3267 -0.952,-0.476 l 1.232,-3.472 c 0.578663,0.3173 1.287996,0.6067 2.128,0.868 0.858661,0.2427 1.903993,0.364 3.136,0.364"
         style="font-size:28px;font-weight:bold;fill:#ffffff;font-family:Ubuntu;-inkscape-font-specification:Ubuntu Medium"
         id="path2996" />
      <path
         d="m 65.448878,1043.1986 0,-19.404 12.992,0 0,3.668 -8.624,0 0,4.06 7.672,0 0,3.668 -7.672,0 0,8.008 -4.368,0"
         style="font-size:28px;font-weight:bold;fill:#ffffff;font-family:Ubuntu;-inkscape-font-specification:Ubuntu Medium"
         id="path2998" />
      <path
         d="m 85.895003,1039.6426 c 0.205326,0.019 0.438659,0.037 0.7,0.056 0.279992,0 0.606658,0 0.98,0 2.183989,0 3.798654,-0.5507 4.844,-1.652 1.063985,-1.1013 1.595985,-2.6227 1.596,-4.564 -1.5e-5,-2.0346 -0.504015,-3.5746 -1.512,-4.62 -1.008013,-1.0453 -2.604011,-1.568 -4.788,-1.568 -0.298675,0 -0.606675,0.01 -0.924,0.028 -0.317341,0 -0.616007,0.019 -0.896,0.056 l 0,12.264 m 12.628,-6.16 c -2e-5,1.68 -0.261353,3.1453 -0.784,4.396 -0.522685,1.2507 -1.269351,2.2867 -2.24,3.108 -0.952016,0.8213 -2.118681,1.4373 -3.5,1.848 -1.381345,0.4107 -2.930677,0.616 -4.648,0.616 -0.784008,0 -1.698673,-0.037 -2.744,-0.112 -1.045338,-0.056 -2.072004,-0.1867 -3.08,-0.392 l 0,-18.9 c 1.007996,-0.1866 2.053329,-0.308 3.136,-0.364 1.101326,-0.075 2.043992,-0.112 2.828,-0.112 1.661323,0 3.163988,0.1867 4.508,0.56 1.362652,0.3734 2.529318,0.9614 3.5,1.764 0.970649,0.8027 1.717315,1.8294 2.24,3.08 0.522647,1.2507 0.78398,2.7534 0.784,4.508"
         style="font-size:28px;font-weight:bold;fill:#ffffff;font-family:Ubuntu;-inkscape-font-specification:Ubuntu Medium"
         id="path3000" />
      <path
         d="m 112.67875,1031.0466 c 0,0.84 -0.27067,1.484 -0.812,1.932 -0.52267,0.4294 -1.12,0.644 -1.792,0.644 -0.672,0 -1.27867,-0.2146 -1.82,-0.644 -0.52267,-0.448 -0.784,-1.092 -0.784,-1.932 0,-0.84 0.26133,-1.4746 0.784,-1.904 0.54133,-0.448 1.148,-0.672 1.82,-0.672 0.672,0 1.26933,0.224 1.792,0.672 0.54133,0.4294 0.812,1.064 0.812,1.904 m 0,9.94 c 0,0.84 -0.27067,1.484 -0.812,1.932 -0.52267,0.4293 -1.12,0.644 -1.792,0.644 -0.672,0 -1.27867,-0.2147 -1.82,-0.644 -0.52267,-0.448 -0.784,-1.092 -0.784,-1.932 0,-0.84 0.26133,-1.4747 0.784,-1.904 0.54133,-0.448 1.148,-0.672 1.82,-0.672 0.672,0 1.26933,0.224 1.792,0.672 0.54133,0.4293 0.812,1.064 0.812,1.904"
         style="font-size:28px;font-weight:bold;fill:#ffffff;font-family:Ubuntu;-inkscape-font-specification:Ubuntu Medium"
         id="path3002" />
      <path
         d="m 134.13594,1028.8906 c -1e-5,0.7094 -0.14001,1.3907 -0.42,2.044 -0.28001,0.6534 -0.64401,1.288 -1.092,1.904 -0.44801,0.5974 -0.95201,1.176 -1.512,1.736 -0.56001,0.56 -1.11068,1.092 -1.652,1.596 -0.28001,0.2613 -0.58801,0.56 -0.924,0.896 -0.31734,0.3173 -0.62534,0.644 -0.924,0.98 -0.29867,0.336 -0.56934,0.6533 -0.812,0.952 -0.22401,0.28 -0.36401,0.5133 -0.42,0.7 l 8.344,0 0,3.5 -12.936,0 c -0.0373,-0.2053 -0.056,-0.4667 -0.056,-0.784 0,-0.3173 0,-0.5413 0,-0.672 0,-0.896 0.14,-1.7173 0.42,-2.464 0.29866,-0.7467 0.68133,-1.4373 1.148,-2.072 0.46666,-0.6533 0.98933,-1.26 1.568,-1.82 0.59733,-0.56 1.18533,-1.12 1.764,-1.68 0.44799,-0.4293 0.86799,-0.8306 1.26,-1.204 0.39199,-0.392 0.73733,-0.7653 1.036,-1.12 0.29866,-0.3733 0.53199,-0.7373 0.7,-1.092 0.16799,-0.3733 0.25199,-0.7466 0.252,-1.12 -1e-5,-0.8213 -0.23334,-1.4 -0.7,-1.736 -0.46668,-0.336 -1.04534,-0.504 -1.736,-0.504 -0.50401,0 -0.98001,0.084 -1.428,0.252 -0.42934,0.1494 -0.83067,0.336 -1.204,0.56 -0.35467,0.2054 -0.66267,0.42 -0.924,0.644 -0.26134,0.2054 -0.45734,0.3734 -0.588,0.504 l -2.072,-2.912 c 0.82133,-0.7653 1.77333,-1.3906 2.856,-1.876 1.10133,-0.504 2.27733,-0.756 3.528,-0.756 1.13866,0 2.11866,0.1307 2.94,0.392 0.82132,0.2614 1.49332,0.6347 2.016,1.12 0.54132,0.4667 0.93332,1.0454 1.176,1.736 0.26132,0.672 0.39199,1.4374 0.392,2.296"
         style="font-size:28px;font-weight:bold;fill:#ffffff;font-family:Ubuntu;-inkscape-font-specification:Ubuntu Medium"
         id="path3004" />
      <path
         d="m 151.114,1033.4546 c -1e-5,3.2667 -0.62535,5.7773 -1.876,7.532 -1.23201,1.736 -2.94001,2.604 -5.124,2.604 -2.184,0 -3.90133,-0.868 -5.152,-2.604 -1.232,-1.7547 -1.848,-4.2653 -1.848,-7.532 0,-1.624 0.15867,-3.0613 0.476,-4.312 0.336,-1.2506 0.812,-2.3053 1.428,-3.164 0.616,-0.8586 1.35333,-1.512 2.212,-1.96 0.85866,-0.448 1.82,-0.672 2.884,-0.672 2.18399,0 3.89199,0.8774 5.124,2.632 1.25065,1.736 1.87599,4.228 1.876,7.476 m -4.256,0 c -1e-5,-0.9706 -0.0467,-1.848 -0.14,-2.632 -0.0933,-0.8026 -0.24267,-1.4933 -0.448,-2.072 -0.20534,-0.5786 -0.48534,-1.0266 -0.84,-1.344 -0.35467,-0.3173 -0.79334,-0.476 -1.316,-0.476 -0.52267,0 -0.96134,0.1587 -1.316,0.476 -0.336,0.3174 -0.616,0.7654 -0.84,1.344 -0.20534,0.5787 -0.35467,1.2694 -0.448,2.072 -0.0933,0.784 -0.14,1.6614 -0.14,2.632 0,0.9707 0.0467,1.8573 0.14,2.66 0.0933,0.8027 0.24266,1.4933 0.448,2.072 0.224,0.5787 0.504,1.0267 0.84,1.344 0.35466,0.3173 0.79333,0.476 1.316,0.476 0.52266,0 0.96133,-0.1587 1.316,-0.476 0.35466,-0.3173 0.63466,-0.7653 0.84,-1.344 0.20533,-0.5787 0.35466,-1.2693 0.448,-2.072 0.0933,-0.8027 0.13999,-1.6893 0.14,-2.66"
         style="font-size:28px;font-weight:bold;fill:#ffffff;font-family:Ubuntu;-inkscape-font-specification:Ubuntu Medium"
         id="path3006" />
      <path
         d="m 154.03607,1027.8266 c 0.54133,-0.224 1.10133,-0.476 1.68,-0.756 0.59732,-0.2986 1.17599,-0.616 1.736,-0.952 0.55999,-0.3546 1.09199,-0.7186 1.596,-1.092 0.52265,-0.392 0.98932,-0.8026 1.4,-1.232 l 2.912,0 0,19.404 -4.172,0 0,-13.972 c -0.56001,0.3734 -1.18534,0.7187 -1.876,1.036 -0.69068,0.2987 -1.36268,0.56 -2.016,0.784 l -1.26,-3.22"
         style="font-size:28px;font-weight:bold;fill:#ffffff;font-family:Ubuntu;-inkscape-font-specification:Ubuntu Medium"
         id="path3008" />
      <path
         d="m 176.92213,1028.8906 c -0.72801,0.952 -1.50268,1.988 -2.324,3.108 -0.82134,1.12 -1.51201,2.268 -2.072,3.444 l 4.396,0 0,-6.552 m 4.088,-5.096 0,11.648 2.072,0 0,3.416 -2.072,0 0,4.34 -4.088,0 0,-4.34 -8.372,0 0,-3.052 c 0.41066,-0.8213 0.924,-1.7453 1.54,-2.772 0.61599,-1.0453 1.29733,-2.1093 2.044,-3.192 0.76533,-1.1013 1.56799,-2.1746 2.408,-3.22 0.83999,-1.0453 1.67999,-1.988 2.52,-2.828 l 3.948,0"
         style="font-size:28px;font-weight:bold;fill:#ffffff;font-family:Ubuntu;-inkscape-font-specification:Ubuntu Medium"
         id="path3010" />
    </g>
    <g
       style="display:inline"
       transform="matrix(0.30972958,0,0,0.30972958,-3.3249783,730.07237)"
       id="layer1-5"
       inkscape:label="Layer 1">
      <g
         inkscape:label="Layer 1"
         id="layer1-2"
         transform="matrix(0.57646422,0,0,0.57646422,-111.11185,744.12467)">
        <g
           id="g2827"
           transform="matrix(1.1096083,0,0,1.1096083,-39.102877,-18.326076)" />
      </g>
      <path
         inkscape:connector-curvature="0"
         style="fill:none;stroke:#ffffff;stroke-width:6.31513786;stroke-linecap:round;stroke-linejoin:miter;stroke-miterlimit:4;stroke-opacity:1;stroke-dasharray:none"
         d="m 83.537403,968.03644 c 5.282606,3.17775 8.833709,9.09398 8.833709,15.86765 l 0,0 c 0,10.13198 -7.945135,18.34561 -17.745947,18.34561 -9.8008,0 -17.745929,-8.21363 -17.745929,-18.34561 0,-6.77367 3.551065,-12.6899 8.833699,-15.86765"
         id="path6119" />
      <rect
         style="fill:none;stroke:#ffffff;stroke-width:5.47866631;stroke-linecap:round;stroke-linejoin:round;stroke-miterlimit:4.05000019;stroke-opacity:1;stroke-dasharray:none"
         id="rect6121"
         width="1.2663366"
         height="14.60964"
         x="74.137955"
         y="960.23279" />
      <path
         inkscape:connector-curvature="0"
         d="m 44.803253,960.13079 21.912706,-37.75516 c 0,0 8.804111,-8.81966 16.517414,-0.84576 l 20.412827,35.78176"
         style="fill:none;stroke:#ffffff;stroke-width:11.85647392;stroke-linecap:butt;stroke-linejoin:round;stroke-miterlimit:4;stroke-opacity:1;stroke-dasharray:none;marker:none"
         id="path1390" />
      <path
         inkscape:connector-curvature="0"
         d="m 68.651867,1026.4373 -42.58463,-0.7406 c 0,0 -11.790502,-3.4723 -8.967218,-14.3649 l 19.768664,-36.1662"
         style="fill:none;stroke:#ffffff;stroke-width:11.85647392;stroke-linecap:butt;stroke-linejoin:round;stroke-miterlimit:4;stroke-opacity:1;stroke-dasharray:none;marker:none"
         id="path3262" />
      <path
         inkscape:connector-curvature="0"
         d="m 112.27391,971.9327 20.67189,38.4958 c 0,0 2.98634,12.292 -7.55018,15.2106 l -40.181501,0.3845"
         style="fill:none;stroke:#ffffff;stroke-width:11.85647392;stroke-linecap:butt;stroke-linejoin:round;stroke-miterlimit:4;stroke-opacity:1;stroke-dasharray:none;marker:none"
         id="path3264" />
      <path
         inkscape:connector-curvature="0"
         d="m 68.829946,1026.1322 24.438184,-14.8813 0,29.3014 -24.438184,-14.4201 z"
         style="fill:#ffffff;fill-opacity:1"
         id="head2" />
      <path
         inkscape:connector-curvature="0"
         d="m 20.855132,975.23135 24.438187,-14.88145 0,29.30149 -24.438187,-14.42004 z"
         style="fill:#ffffff;fill-opacity:1"
         id="head3" />
      <path
         inkscape:connector-curvature="0"
         d="m 87.53066,957.53025 24.43819,-14.88151 0,29.30153 -24.43819,-14.42002 z"
         style="fill:#ffffff;fill-opacity:1"
         id="head1" />
    </g>
  </g>
</svg>
